<svg width="527" height="60" viewBox="0 0 527 60" fill="none" xmlns="http://www.w3.org/2000/svg">
<path d="M10 0.5H505C510.247 0.5 514.5 4.75329 514.5 10V47.6582C514.5 49.2904 515.225 50.8388 516.479 51.8838L525.619 59.5H10C4.7533 59.5 0.5 55.2467 0.5 50V10C0.500001 4.7533 4.7533 0.5 10 0.5Z" fill="#0066CC"/>
<path d="M10 0.5H505C510.247 0.5 514.5 4.75329 514.5 10V47.6582C514.5 49.2904 515.225 50.8388 516.479 51.8838L525.619 59.5H10C4.7533 59.5 0.5 55.2467 0.5 50V10C0.500001 4.7533 4.7533 0.5 10 0.5Z" stroke="black"/>
<path d="M10 0.5H505C510.247 0.5 514.5 4.75329 514.5 10V47.6582C514.5 49.2904 515.225 50.8388 516.479 51.8838L525.619 59.5H10C4.7533 59.5 0.5 55.2467 0.5 50V10C0.500001 4.7533 4.7533 0.5 10 0.5Z" stroke="black" stroke-opacity="0.2"/>
</svg>
